#!OML:ASF E:\Steps\Project 1\Capture day 1\Session 2\Subject.ASF
:FULLY-SPECIFIED
:DEGREES
494
root 3.37955 17.9479 16.4863 -154.408 -2.66431 175.438
lowerback -31.8209 -2.1322 -9.54031
upperback -1.92985 -0.149803 -1.08984
thorax 14.308 -1.01576 3.78042
lowerneck -2.27406 -3.29182 -1.06658
upperneck 4.95515 -4.50185 1.78629
head 2.0047 -2.24427 0.629484
rclavicle 1.13307e-014 1.63003e-014
rhumerus -35.461 -19.4259 -78.6771
rradius 29.9619
rwrist 0.395436
rhand -4.92196 -52.491
rfingers 7.12502
rthumb 20.8684 -81.3886
lclavicle 1.13307e-014 1.63003e-014
lhumerus -29.5948 2.07615 83.1903
lradius 20.7289
lwrist -6.02579
lhand -20.4938 -13.8816
lfingers 7.12502
lthumb 5.8631 16.0173
rfemur -24.8741 9.50055 15.1125
rtibia 12.0186
rfoot -21.1154 -4.93621
rtoes -27.6282
lfemur -23.0884 -6.28089 -27.0319
ltibia 7.8299
lfoot -5.53663 -8.28072
ltoes 2.40459
495
root 3.38242 17.9512 16.4832 -154.257 -2.59965 175.26
lowerback -32.0338 -2.173 -9.7485
upperback -1.9479 -0.1154 -1.15678
thorax 14.3667 -1.02204 3.82447
lowerneck -2.49892 -3.39607 -0.973854
upperneck 5.05622 -4.6419 1.73499
head 2.07614 -2.31148 0.589352
rclavicle -2.43511e-015 -1.39149e-014
rhumerus -35.4808 -19.4408 -78.6635
rradius 29.8865
rwrist 0.467176
rhand -4.84067 -52.5007
rfingers 7.12502
rthumb 20.9465 -81.3897
lclavicle -2.43511e-015 -1.39149e-014
lhumerus -29.5854 2.00187 83.1234
lradius 20.7994
lwrist -5.82018
lhand -20.6182 -13.9026
lfingers 7.12502
lthumb 5.74302 15.9995
rfemur -25.4781 9.70925 14.8384
rtibia 12.9666
rfoot -21.6613 -5.32475
rtoes -27.9764
lfemur -23.2791 -6.32303 -27.2383
ltibia 7.93229
lfoot -5.59331 -8.45711
ltoes 3.34283
496
root 3.38589 17.9527 16.4788 -154.287 -2.54278 175.14
lowerback -32.1017 -2.19797 -9.89937
upperback -1.86828 -0.0675226 -1.18718
thorax 14.4793 -1.01353 3.88934
lowerneck -2.65315 -3.34308 -1.15053
upperneck 4.88106 -4.56158 1.91431
head 2.05565 -2.26745 0.676666
rclavicle 1.55797e-014 -1.98785e-014
rhumerus -35.2949 -19.4981 -78.625
rradius 29.6942
rwrist 0.605637
rhand -4.73477 -52.6816
rfingers 7.12502
rthumb 21.0482 -81.5593
lclavicle 1.55797e-014 -1.98785e-014
lhumerus -29.3283 2.04793 83.0533
lradius 20.7797
lwrist -5.74925
lhand -20.4916 -13.9288
lfingers 7.12502
lthumb 5.86518 15.9701
rfemur -25.0689 9.14234 14.8013
rtibia 12.1626
rfoot -21.2081 -4.70281
rtoes -27.7427
lfemur -23.2404 -6.29418 -27.3958
ltibia 7.96817
lfoot -5.64238 -8.4874
ltoes 2.65751
497
root 3.38886 17.9511 16.474 -154.396 -2.50961 175.148
lowerback -32.0482 -2.17401 -9.89048
upperback -1.82358 -0.0296857 -1.20933
thorax 14.5046 -0.994169 3.87789
lowerneck -2.64278 -3.16976 -1.49458
upperneck 4.63337 -4.32677 2.3269
head 1.99032 -2.14627 0.873638
rclavicle 1.16786e-014 1.90833e-014
rhumerus -35.2187 -19.5307 -78.6336
rradius 29.5883
rwrist 0.641082
rhand -4.7846 -52.9414
rfingers 7.12502
rthumb 21.0004 -81.8245
lclavicle 1.16786e-014 1.90833e-014
lhumerus -29.0795 2.13532 82.9591
lradius 20.702
lwrist -6.02667
lhand -20.329 -13.4674
lfingers 7.12502
lthumb 6.02219 16.427
rfemur -23.847 7.43014 15.1323
rtibia 9.83796
rfoot -19.9747 -2.85981
rtoes -27.8577
lfemur -23.095 -6.26593 -27.3983
ltibia 7.9358
lfoot -5.70291 -8.43995
ltoes 1.43649
498
root 3.3913 17.95 16.4714 -154.401 -2.54949 175.148
lowerback -32.0135 -2.18603 -9.89461
upperback -1.86466 -0.0557784 -1.22557
thorax 14.4441 -1.00456 3.85151
lowerneck -2.62473 -3.04787 -1.72938
upperneck 4.49349 -4.16648 2.66034
head 1.95409 -2.06322 1.02482
rclavicle -1.4064e-014 3.61788e-014
rhumerus -35.284 -19.4805 -78.6478
rradius 29.5433
rwrist 0.565545
rhand -4.84484 -53.0954
rfingers 7.12502
rthumb 20.9425 -81.9848
lclavicle -1.4064e-014 3.61788e-014
lhumerus -29.0098 2.2046 82.8635
lradius 20.6226
lwrist -6.33274
lhand -19.5328 -11.6354
lfingers 7.12502
lthumb 6.79081 18.2357
rfemur -23.9136 7.50781 15.1537
rtibia 10.0544
rfoot -20.0486 -3.04027
rtoes -27.8613
lfemur -23.0868 -6.33924 -27.3782
ltibia 7.94569
lfoot -5.72722 -8.39959
ltoes 1.32937
499
root 3.39501 17.9494 16.4665 -154.446 -2.54929 175.076
lowerback -31.9963 -2.22249 -10.0178
upperback -1.87514 -0.063359 -1.245
thorax 14.4216 -1.01555 3.89176
lowerneck -2.60396 -2.93928 -1.91675
upperneck 4.3914 -4.02428 2.93071
head 1.9264 -1.99009 1.1476
rclavicle 1.90336e-014 -1.07344e-014
rhumerus -35.2741 -19.5915 -78.5574
rradius 29.3469
rwrist 0.712618
rhand -4.62986 -52.8263
rfingers 7.12502
rthumb 21.149 -81.6927
lclavicle 1.90336e-014 -1.07344e-014
lhumerus -29.0024 2.18898 82.7739
lradius 20.5767
lwrist -6.42556
lhand -20.3181 -14.1421
lfingers 7.12502
lthumb 6.03267 15.752
rfemur -23.8958 7.6399 15.0758
rtibia 10.1536
rfoot -19.9568 -3.22922
rtoes -27.2779
lfemur -23.027 -6.46466 -27.4248
ltibia 7.97575
lfoot -5.78615 -8.14803
ltoes 0.837389
500
root 3.39802 17.9492 16.4605 -154.562 -2.50055 175.034
lowerback -31.9497 -2.23608 -10.1056
upperback -1.8567 -0.0481652 -1.26689
thorax 14.4189 -1.01313 3.92122
lowerneck -2.66169 -2.95128 -1.93962
upperneck 4.33872 -4.04312 3.05622
head 1.92435 -1.99676 1.1905
rclavicle 1.19271e-014 -5.40694e-014
rhumerus -35.294 -19.8149 -78.4332
rradius 29.1719
rwrist 1.04255
rhand -4.37313 -52.3971
rfingers 7.12502
rthumb 21.3956 -81.2357
lclavicle 1.19271e-014 -5.40694e-014
lhumerus -28.9852 2.17202 82.6867
lradius 20.5824
lwrist -6.34163
lhand -20.572 -13.8998
lfingers 7.12502
lthumb 5.7876 16.0012
rfemur -23.7453 7.69399 15.035
rtibia 10.1
rfoot -19.8236 -3.03712
rtoes -26.1914
lfemur -22.8982 -6.50563 -27.4615
ltibia 8.04242
lfoot -5.88717 -7.74128
ltoes -0.614736
